<svg width="16" height="16" viewBox="0 0 16 16" fill="none" xmlns="http://www.w3.org/2000/svg">
<path fill-rule="evenodd" clip-rule="evenodd" d="M2.00002 3.99992C2.00002 3.63173 2.2985 3.33325 2.66669 3.33325H3.33336C3.70155 3.33325 4.00002 3.63173 4.00002 3.99992V5.99992C4.36821 5.99992 4.66669 6.2984 4.66669 6.66659C4.66669 7.03478 4.36821 7.33325 4.00002 7.33325H2.66669C2.2985 7.33325 2.00002 7.03478 2.00002 6.66659C2.00002 6.2984 2.2985 5.99992 2.66669 5.99992V4.66659C2.2985 4.66659 2.00002 4.36811 2.00002 3.99992ZM6.00002 3.99992C6.00002 3.63173 6.2985 3.33325 6.66669 3.33325H14C14.3682 3.33325 14.6667 3.63173 14.6667 3.99992C14.6667 4.36811 14.3682 4.66659 14 4.66659H6.66669C6.2985 4.66659 6.00002 4.36811 6.00002 3.99992ZM6.00002 7.99992C6.00002 7.63173 6.2985 7.33325 6.66669 7.33325H14C14.3682 7.33325 14.6667 7.63173 14.6667 7.99992C14.6667 8.36811 14.3682 8.66659 14 8.66659H6.66669C6.2985 8.66659 6.00002 8.36811 6.00002 7.99992ZM3.8815 8.6953C4.36366 8.93638 4.66669 9.4212 4.66669 9.99992C4.66669 10.3841 4.47875 10.695 4.32502 10.8999C4.20934 11.0542 4.07018 11.2028 3.9421 11.3333H4.00002C4.36821 11.3333 4.66669 11.6317 4.66669 11.9999C4.66669 12.3681 4.36821 12.6666 4.00002 12.6666H2.66669C2.2985 12.6666 2.00002 12.3681 2.00002 11.9999C2.00002 11.6157 2.18797 11.3049 2.34169 11.0999C2.49553 10.8948 2.69088 10.6995 2.84648 10.544C2.85168 10.5388 2.85684 10.5336 2.86195 10.5285C3.03733 10.3531 3.16734 10.2213 3.25836 10.0999C3.30862 10.0329 3.32684 9.99474 3.33278 9.98081C3.33027 9.94068 3.32024 9.92126 3.31597 9.91426C3.31079 9.90574 3.30259 9.89656 3.28521 9.88787C3.25153 9.87103 3.14108 9.84141 2.96483 9.92954C2.63551 10.0942 2.23507 9.96071 2.07041 9.63139C1.90575 9.30208 2.03923 8.90163 2.36855 8.73697C2.85897 8.49176 3.41519 8.46214 3.8815 8.6953ZM6.00002 11.9999C6.00002 11.6317 6.2985 11.3333 6.66669 11.3333H14C14.3682 11.3333 14.6667 11.6317 14.6667 11.9999C14.6667 12.3681 14.3682 12.6666 14 12.6666H6.66669C6.2985 12.6666 6.00002 12.3681 6.00002 11.9999Z" fill="#474747"/>
</svg>
