<svg width="20" height="20" viewBox="0 0 20 20" fill="none" xmlns="http://www.w3.org/2000/svg">
<path fill-rule="evenodd" clip-rule="evenodd" d="M8.22132 4.22149C8.06489 4.37792 7.99992 4.55024 7.99992 4.66675V5.33341H11.9999V4.66675C11.9999 4.55024 11.9349 4.37792 11.7785 4.22149C11.6221 4.06505 11.4498 4.00008 11.3333 4.00008H8.66658C8.55007 4.00008 8.37776 4.06505 8.22132 4.22149ZM13.3333 5.33341V4.66675C13.3333 4.11659 13.0649 3.62224 12.7213 3.27868C12.3778 2.93511 11.8834 2.66675 11.3333 2.66675H8.66658C8.11643 2.66675 7.62208 2.93511 7.27851 3.27868C6.93495 3.62224 6.66658 4.11659 6.66658 4.66675V5.33341H3.99992C3.63173 5.33341 3.33325 5.63189 3.33325 6.00008C3.33325 6.36827 3.63173 6.66675 3.99992 6.66675H4.66659V15.3334C4.66659 15.8836 4.93495 16.3779 5.27851 16.7215C5.62208 17.0651 6.11643 17.3334 6.66658 17.3334H13.3333C13.8834 17.3334 14.3778 17.0651 14.7213 16.7215C15.0649 16.3779 15.3333 15.8836 15.3333 15.3334V6.66675H15.9999C16.3681 6.66675 16.6666 6.36827 16.6666 6.00008C16.6666 5.63189 16.3681 5.33341 15.9999 5.33341H13.3333ZM5.99992 6.66675V15.3334C5.99992 15.4499 6.06489 15.6222 6.22132 15.7787C6.37776 15.9351 6.55007 16.0001 6.66658 16.0001H13.3333C13.4498 16.0001 13.6221 15.9351 13.7785 15.7787C13.9349 15.6222 13.9999 15.4499 13.9999 15.3334V6.66675H5.99992ZM8.66658 8.66675C9.03477 8.66675 9.33325 8.96522 9.33325 9.33342V13.3334C9.33325 13.7016 9.03477 14.0001 8.66658 14.0001C8.2984 14.0001 7.99992 13.7016 7.99992 13.3334V9.33342C7.99992 8.96522 8.2984 8.66675 8.66658 8.66675ZM11.3333 8.66675C11.7014 8.66675 11.9999 8.96522 11.9999 9.33342V13.3334C11.9999 13.7016 11.7014 14.0001 11.3333 14.0001C10.9651 14.0001 10.6666 13.7016 10.6666 13.3334V9.33342C10.6666 8.96522 10.9651 8.66675 11.3333 8.66675Z" fill="#C82A19"/>
</svg>
