<svg width="16" height="16" viewBox="0 0 16 16" fill="none" xmlns="http://www.w3.org/2000/svg">
<path fill-rule="evenodd" clip-rule="evenodd" d="M7.99996 2.66659C6.89539 2.66659 5.99996 3.56202 5.99996 4.66658C5.99996 5.77115 6.89539 6.66658 7.99996 6.66658C9.10453 6.66658 9.99996 5.77115 9.99996 4.66658C9.99996 3.56202 9.10453 2.66659 7.99996 2.66659ZM4.66663 4.66658C4.66663 2.82564 6.15901 1.33325 7.99996 1.33325C9.84091 1.33325 11.3333 2.82564 11.3333 4.66658C11.3333 6.50753 9.84091 7.99992 7.99996 7.99992C6.15901 7.99992 4.66663 6.50753 4.66663 4.66658ZM3.64294 10.3096C4.26806 9.68444 5.1159 9.33325 5.99996 9.33325H9.99996C10.884 9.33325 11.7319 9.68444 12.357 10.3096C12.9821 10.9347 13.3333 11.7825 13.3333 12.6666V13.9999C13.3333 14.3681 13.0348 14.6666 12.6666 14.6666C12.2984 14.6666 12 14.3681 12 13.9999V12.6666C12 12.1362 11.7892 11.6274 11.4142 11.2524C11.0391 10.8773 10.5304 10.6666 9.99996 10.6666H5.99996C5.46953 10.6666 4.96082 10.8773 4.58575 11.2524C4.21067 11.6274 3.99996 12.1362 3.99996 12.6666V13.9999C3.99996 14.3681 3.70148 14.6666 3.33329 14.6666C2.9651 14.6666 2.66663 14.3681 2.66663 13.9999V12.6666C2.66663 11.7825 3.01782 10.9347 3.64294 10.3096Z" fill="#474747"/>
</svg>
