<svg width="16" height="16" viewBox="0 0 16 16" fill="none" xmlns="http://www.w3.org/2000/svg">
<path fill-rule="evenodd" clip-rule="evenodd" d="M5.33337 0.666748C5.70156 0.666748 6.00004 0.965225 6.00004 1.33341V2.00008H10V1.33341C10 0.965225 10.2985 0.666748 10.6667 0.666748C11.0349 0.666748 11.3334 0.965225 11.3334 1.33341V2.00008H12.6667C13.1971 2.00008 13.7058 2.2108 14.0809 2.58587C14.456 2.96094 14.6667 3.46965 14.6667 4.00008V5.00008C14.6667 5.36827 14.3682 5.66675 14 5.66675C13.6319 5.66675 13.3334 5.36827 13.3334 5.00008V4.00008C13.3334 3.82327 13.2631 3.6537 13.1381 3.52868C13.0131 3.40365 12.8435 3.33341 12.6667 3.33341H11.3334V4.00008C11.3334 4.36827 11.0349 4.66675 10.6667 4.66675C10.2985 4.66675 10 4.36827 10 4.00008V3.33341H6.00004V4.00008C6.00004 4.36827 5.70156 4.66675 5.33337 4.66675C4.96518 4.66675 4.66671 4.36827 4.66671 4.00008V3.33341H3.33337C3.15656 3.33341 2.98699 3.40365 2.86197 3.52868C2.73695 3.6537 2.66671 3.82327 2.66671 4.00008V6.00008H5.33337C5.70156 6.00008 6.00004 6.29856 6.00004 6.66675C6.00004 7.03494 5.70156 7.33342 5.33337 7.33342H2.66671V13.3334C2.66671 13.5102 2.73695 13.6798 2.86197 13.8048C2.98699 13.9298 3.15656 14.0001 3.33337 14.0001H5.66671C6.0349 14.0001 6.33337 14.2986 6.33337 14.6667C6.33337 15.0349 6.0349 15.3334 5.66671 15.3334H3.33337C2.80294 15.3334 2.29423 15.1227 1.91916 14.7476C1.54409 14.3726 1.33337 13.8638 1.33337 13.3334V4.00008C1.33337 3.46965 1.54409 2.96094 1.91916 2.58587C2.29423 2.21079 2.80294 2.00008 3.33337 2.00008H4.66671V1.33341C4.66671 0.965225 4.96518 0.666748 5.33337 0.666748ZM10.6667 7.33342C8.82576 7.33342 7.33337 8.8258 7.33337 10.6667C7.33337 12.5077 8.82576 14.0001 10.6667 14.0001C12.5077 14.0001 14 12.5077 14 10.6667C14 8.8258 12.5077 7.33342 10.6667 7.33342ZM6.00004 10.6667C6.00004 8.08942 8.08938 6.00008 10.6667 6.00008C13.244 6.00008 15.3334 8.08942 15.3334 10.6667C15.3334 13.2441 13.244 15.3334 10.6667 15.3334C8.08938 15.3334 6.00004 13.2441 6.00004 10.6667ZM10.6667 8.66675C11.0349 8.66675 11.3334 8.96523 11.3334 9.33342V10.5463L12.0832 11.1462C12.3707 11.3762 12.4173 11.7957 12.1873 12.0832C11.9573 12.3707 11.5378 12.4173 11.2502 12.1873L10.2502 11.3873C10.0921 11.2608 10 11.0693 10 10.8667V9.33342C10 8.96523 10.2985 8.66675 10.6667 8.66675Z" fill="#474747"/>
</svg>
