<svg width="16" height="16" viewBox="0 0 16 16" fill="none" xmlns="http://www.w3.org/2000/svg">
<path d="M0 8C0 3.58172 3.58172 0 8 0C12.4183 0 16 3.58172 16 8C16 12.4183 12.4183 16 8 16C3.58172 16 0 12.4183 0 8Z" fill="#60A612"/>
<path fill-rule="evenodd" clip-rule="evenodd" d="M10.7946 5.20529C10.9573 5.36801 10.9573 5.63183 10.7946 5.79455L6.21125 10.3779C6.04854 10.5406 5.78472 10.5406 5.622 10.3779L3.53866 8.29455C3.37595 8.13183 3.37595 7.86801 3.53866 7.70529C3.70138 7.54257 3.9652 7.54257 4.12792 7.70529L5.91663 9.494L10.2053 5.20529C10.3681 5.04257 10.6319 5.04257 10.7946 5.20529ZM12.4613 6.87196C12.624 7.03468 12.624 7.29849 12.4613 7.46121L9.33625 10.5862C9.17354 10.7489 8.90972 10.7489 8.747 10.5862L8.122 9.96121C7.95928 9.79849 7.95928 9.53468 8.122 9.37196C8.28472 9.20924 8.54854 9.20924 8.71125 9.37196L9.04163 9.70233L11.872 6.87196C12.0347 6.70924 12.2985 6.70924 12.4613 6.87196Z" fill="white"/>
</svg>
